<svg width="140" height="40" viewBox="0 0 129 40" fill="none" xmlns="http://www.w3.org/2000/svg"><path d="M0 10C0 4.477 4.512 0 10.078 0h108.844C124.488 0 129 4.477 129 10v20c0 5.523-4.512 10-10.078 10H10.078C4.512 40 0 35.523 0 30V10z" fill="#141416"></path><path d="M86.222 19.2v2.292h-1.447v1.502h1.447V28.1c0 1.744.795 2.44 2.795 2.44.351 0 .686-.04.978-.09v-1.486c-.25.024-.41.041-.686.041-.895 0-1.288-.415-1.288-1.361v-4.649h1.974v-1.502h-1.974V19.2h-1.799zM95.089 30.664c2.66 0 4.291-1.768 4.291-4.698 0-2.914-1.64-4.69-4.291-4.69-2.66 0-4.3 1.776-4.3 4.69 0 2.93 1.631 4.698 4.3 4.698zm0-1.585c-1.565 0-2.443-1.137-2.443-3.113 0-1.959.878-3.104 2.443-3.104 1.556 0 2.442 1.145 2.442 3.104 0 1.967-.886 3.113-2.442 3.113zM100.776 30.49h1.799v-5.337c0-1.27.962-2.125 2.325-2.125.318 0 .854.058 1.004.108v-1.76c-.192-.05-.535-.075-.803-.075-1.188 0-2.2.648-2.459 1.536h-.134V21.45h-1.732v9.04zM110.37 22.795c1.33 0 2.2.921 2.242 2.341h-4.601c.1-1.411 1.029-2.34 2.359-2.34zm2.234 5.255c-.335.705-1.079 1.095-2.167 1.095-1.439 0-2.367-1.004-2.426-2.59v-.1h6.433v-.622c0-2.839-1.531-4.557-4.066-4.557-2.568 0-4.199 1.835-4.199 4.723 0 2.889 1.598 4.665 4.208 4.665 2.083 0 3.538-.996 3.948-2.614h-1.731zM74.427 27.152c.14 2.22 2.003 3.64 4.778 3.64 2.966 0 4.821-1.49 4.821-3.864 0-1.867-1.058-2.9-3.624-3.493l-1.379-.335c-1.63-.379-2.29-.887-2.29-1.773 0-1.118 1.024-1.85 2.559-1.85 1.457 0 2.462.715 2.644 1.859h1.89c-.112-2.09-1.968-3.562-4.508-3.562-2.731 0-4.552 1.471-4.552 3.682 0 1.824 1.031 2.908 3.295 3.433l1.612.387c1.656.387 2.385.955 2.385 1.902 0 1.1-1.145 1.901-2.706 1.901-1.673 0-2.835-.748-3-1.927h-1.925zM55.796 21.301c-1.238 0-2.31.614-2.861 1.644H52.8V21.45h-1.732v12.045h1.799V29.12h.142c.477.955 1.506 1.52 2.803 1.52 2.3 0 3.764-1.802 3.764-4.674 0-2.872-1.464-4.665-3.781-4.665zm-.51 7.736c-1.506 0-2.452-1.178-2.452-3.063 0-1.892.946-3.07 2.46-3.07 1.522 0 2.434 1.153 2.434 3.062 0 1.918-.912 3.071-2.443 3.071zM65.87 21.301c-1.238 0-2.308.614-2.86 1.644h-.134V21.45h-1.732v12.045h1.799V29.12h.142c.477.955 1.506 1.52 2.802 1.52 2.3 0 3.765-1.802 3.765-4.674 0-2.872-1.464-4.665-3.781-4.665zm-.51 7.736c-1.505 0-2.45-1.178-2.45-3.063 0-1.892.945-3.07 2.459-3.07 1.522 0 2.434 1.153 2.434 3.062 0 1.918-.912 3.071-2.443 3.071zM47.842 30.49h2.064l-4.518-12.415h-2.09L38.782 30.49h1.995l1.153-3.295h4.769l1.144 3.295zm-3.598-10.16h.147l1.812 5.247h-3.78l1.82-5.248zM40.942 8.994c.153-.523.613-.827 1.149-.827.67 0 1.044.4 1.044.94 0 .533-.335.941-.967.941h-.766v.95h.794c.766 0 1.178.418 1.178.998 0 .636-.46 1.073-1.254 1.073-.66 0-1.245-.294-1.408-.96h-1.13c.173 1.35 1.312 2.005 2.547 2.005 1.245 0 2.346-.722 2.346-2.042 0-.703-.335-1.32-1.005-1.644.574-.39.756-.96.756-1.482 0-1.083-.862-1.805-2.106-1.805-.996 0-2.05.504-2.298 1.853h1.12zM45.279 11.625c0 1.359.995 2.47 2.307 2.47.69 0 1.264-.351 1.532-.731V14h1.053V9.25h-1.053v.637c-.268-.38-.843-.732-1.532-.732-1.312 0-2.307 1.112-2.307 2.47zm3.925 0c0 .855-.574 1.52-1.426 1.52-.853 0-1.427-.665-1.427-1.52s.574-1.52 1.427-1.52c.852 0 1.426.665 1.426 1.52zM51.598 14h1.053v-3.819h2.087v-.93h-3.14V14zM55.609 15.986h1.053v-2.622c.268.38.852.731 1.541.731 1.312 0 2.308-1.111 2.308-2.47 0-1.358-.996-2.47-2.308-2.47-.689 0-1.273.352-1.541.732V9.25h-1.053v6.736zm3.83-4.36c0 .854-.584 1.52-1.427 1.52-.852 0-1.436-.666-1.436-1.52 0-.856.584-1.52 1.436-1.52.843 0 1.427.664 1.427 1.52zM66.067 9.25H64.9l-1.436 3.287L61.96 9.25H60.8l2.068 4.513-.316.693c-.249.532-.536.694-.861.694-.201 0-.326-.01-.47-.02v.903c.163.038.336.048.584.048.834 0 1.35-.418 1.772-1.35l2.49-5.48zM70.308 12.642c0-.532-.268-.912-.718-1.14.373-.238.517-.608.517-.998 0-.674-.565-1.349-1.772-1.349-.89 0-1.77.409-1.972 1.416h1.053c.115-.37.46-.58.9-.58.489 0 .785.228.785.59 0 .389-.287.579-.718.579h-.545v.77h.564c.537 0 .843.237.843.636 0 .37-.297.655-.91.665-.497 0-.87-.21-1.005-.608h-1.082c.201 1.007 1.12 1.472 2.087 1.472 1.312 0 1.973-.712 1.973-1.453zM71.4 14h.939l2.441-3.163V14h1.054V9.25h-.939l-2.441 3.164V9.25H71.4V14zM78.144 14h1.053v-3.819H80.7v-.93h-3.992v.93h1.436v3.82zM85.913 12.509h-1.1c-.22.456-.68.665-1.207.665-.852 0-1.407-.57-1.446-1.292h3.81c.097-1.615-.928-2.727-2.393-2.727-1.474 0-2.46 1.064-2.46 2.47 0 1.425 1.024 2.47 2.45 2.47 1.217 0 2.078-.693 2.346-1.586zm-2.364-2.48c.583 0 1.13.342 1.292 1.112h-2.642c.143-.732.689-1.112 1.35-1.112zM89.306 14h2.46c1.245 0 1.733-.684 1.733-1.406 0-.475-.249-.883-.699-1.12.268-.248.393-.533.393-.865 0-.741-.556-1.359-1.704-1.359h-2.183V14zm1.053-2.83v-1.074h1.168c.297 0 .613.133.613.532 0 .408-.316.541-.613.541h-1.168zm0 1.947v-1.188h1.398c.402 0 .689.21.689.599 0 .38-.287.589-.69.589H90.36zM29.022 20.3a4.98 4.98 0 012.375-4.151 5.18 5.18 0 00-4.022-2.158c-1.692-.176-3.333 1.005-4.195 1.005-.88 0-2.207-.988-3.637-.958a5.407 5.407 0 00-4.508 2.727c-1.95 3.349-.495 8.27 1.372 10.977.934 1.325 2.026 2.805 3.454 2.753 1.398-.058 1.92-.885 3.608-.885 1.671 0 2.161.885 3.619.852 1.5-.025 2.445-1.332 3.346-2.67a10.93 10.93 0 001.53-3.092c-1.762-.74-2.94-2.5-2.942-4.4zM26.27 12.211a4.847 4.847 0 001.122-3.49 5.01 5.01 0 00-3.232 1.659 4.656 4.656 0 00-1.153 3.361 4.192 4.192 0 003.262-1.53z" fill="#fff"></path></svg>