<svg width="140" height="40" viewBox="0 0 140 40" fill="none" xmlns="http://www.w3.org/2000/svg"><path d="M0 10C0 4.477 4.477 0 10 0h120c5.523 0 10 4.477 10 10v20c0 5.523-4.477 10-10 10H10C4.477 40 0 35.523 0 30V10z" fill="#141416"></path><path d="M70.163 21.751c-2.352 0-4.269 1.79-4.269 4.253 0 2.45 1.917 4.253 4.27 4.253 2.352 0 4.27-1.804 4.27-4.253-.002-2.464-1.919-4.253-4.27-4.253zm0 6.832c-1.289 0-2.4-1.063-2.4-2.578 0-1.53 1.112-2.578 2.4-2.578 1.29 0 2.4 1.047 2.4 2.578 0 1.514-1.11 2.578-2.4 2.578zm-9.314-6.832c-2.352 0-4.269 1.79-4.269 4.253 0 2.45 1.917 4.253 4.27 4.253 2.352 0 4.27-1.804 4.27-4.253 0-2.464-1.918-4.253-4.27-4.253zm0 6.832c-1.289 0-2.4-1.063-2.4-2.578 0-1.53 1.112-2.578 2.4-2.578 1.29 0 2.4 1.047 2.4 2.578.001 1.514-1.11 2.578-2.4 2.578zm-11.078-5.526v1.804h4.318c-.129 1.015-.467 1.756-.983 2.271-.628.628-1.61 1.321-3.335 1.321-2.658 0-4.736-2.143-4.736-4.8 0-2.659 2.078-4.802 4.736-4.802 1.434 0 2.481.564 3.254 1.29l1.273-1.274c-1.08-1.03-2.513-1.82-4.527-1.82-3.64 0-6.702 2.964-6.702 6.605 0 3.641 3.061 6.605 6.702 6.605 1.965 0 3.448-.645 4.607-1.853 1.192-1.192 1.563-2.868 1.563-4.22 0-.419-.032-.806-.097-1.128l-6.073.001zm45.308 1.401c-.354-.95-1.434-2.707-3.64-2.707-2.192 0-4.013 1.724-4.013 4.253 0 2.384 1.805 4.253 4.221 4.253 1.95 0 3.077-1.192 3.545-1.885l-1.45-.967c-.483.71-1.144 1.176-2.095 1.176-.95 0-1.627-.435-2.062-1.289l5.687-2.352-.193-.482zm-5.8 1.418c-.048-1.644 1.273-2.48 2.224-2.48.741 0 1.37.37 1.58.901l-3.804 1.58zM84.656 30h1.868V17.5h-1.868V30zm-3.062-7.298h-.064c-.419-.5-1.225-.95-2.239-.95-2.127 0-4.076 1.868-4.076 4.27 0 2.383 1.95 4.236 4.076 4.236 1.015 0 1.82-.45 2.24-.966h.063v.612c0 1.627-.87 2.497-2.27 2.497-1.145 0-1.854-.82-2.144-1.514l-1.627.677c.467 1.127 1.707 2.513 3.77 2.513 2.191 0 4.044-1.289 4.044-4.43V22.01h-1.772v.692zm-2.142 5.881c-1.289 0-2.368-1.08-2.368-2.562 0-1.499 1.08-2.594 2.368-2.594 1.272 0 2.271 1.095 2.271 2.594 0 1.482-.999 2.562-2.27 2.562zM103.833 17.5h-4.47V30h1.864v-4.736h2.605c2.068 0 4.102-1.497 4.102-3.882s-2.033-3.883-4.101-3.883zm.048 6.025h-2.654V19.24h2.654c1.395 0 2.187 1.155 2.187 2.143 0 .968-.792 2.142-2.187 2.142zm11.532-1.795c-1.351 0-2.75.595-3.329 1.914l1.656.691c.354-.69 1.014-.917 1.705-.917.965 0 1.946.58 1.962 1.608v.13c-.338-.194-1.062-.483-1.946-.483-1.785 0-3.603.981-3.603 2.814 0 1.673 1.464 2.75 3.104 2.75 1.254 0 1.946-.563 2.38-1.223h.064v.965h1.802v-4.793c.001-2.218-1.657-3.456-3.795-3.456zm-.226 6.851c-.61 0-1.463-.306-1.463-1.062 0-.965 1.062-1.335 1.979-1.335.819 0 1.206.177 1.704.418a2.262 2.262 0 01-2.22 1.98zm10.583-6.578l-2.139 5.42h-.064l-2.22-5.42h-2.01l3.329 7.575-1.898 4.214h1.946l5.131-11.789h-2.075zM108.964 30h1.865V17.5h-1.865V30zM47.896 14.184h1.048v-2.288h-.728V7.32h-4.16v2.96c0 1.256-.344 1.616-.728 1.616h-.096v2.288h1.048V13h3.616v1.184zm-2.68-5.76h1.84v3.472h-2.144c.208-.368.304-.792.304-1.512v-1.96zM55.238 10.16a2.933 2.933 0 00-2.936-2.936 2.933 2.933 0 00-2.936 2.936 2.933 2.933 0 002.936 2.936 2.933 2.933 0 002.936-2.936zm-4.704 0c0-.992.776-1.816 1.768-1.816s1.768.824 1.768 1.816c0 .992-.776 1.816-1.768 1.816s-1.768-.824-1.768-1.816zM55.835 10.16c0 1.648 1.256 2.936 2.976 2.936 1.288 0 2.44-.824 2.752-2.032h-1.256c-.24.568-.856.912-1.496.912-1.088 0-1.808-.8-1.808-1.816s.72-1.816 1.808-1.816c.64 0 1.256.344 1.496.912h1.256c-.312-1.208-1.464-2.032-2.752-2.032-1.72 0-2.976 1.288-2.976 2.936zM63.375 13h1.168V8.424h1.528V7.32h-4.208v1.104h1.512V13zM67.298 13.04c.216.04.352.056.68.056.856 0 1.408-.432 1.936-1.48L72.09 7.32h-1.32l-1.496 2.992L67.73 7.32h-1.328l2.216 4.28c-.232.336-.488.4-.808.4-.176 0-.368-.016-.512-.032v1.072zM76.223 13h1.16V7.32h-4.72V13h1.16V8.424h2.4V13zM78.648 13h1.16v-2.312h2.464V13h1.16V7.32h-1.16v2.264h-2.464V7.32h-1.16V13zM90.23 10.16a2.933 2.933 0 00-2.936-2.936 2.933 2.933 0 00-2.936 2.936 2.933 2.933 0 002.936 2.936 2.933 2.933 0 002.936-2.936zm-4.704 0c0-.992.776-1.816 1.768-1.816s1.768.824 1.768 1.816c0 .992-.776 1.816-1.768 1.816s-1.768-.824-1.768-1.816zM92.976 13h2.4c1.008 0 1.76-.728 1.76-1.672a1.44 1.44 0 00-.84-1.344c.272-.24.448-.584.448-1.016 0-.904-.736-1.648-1.688-1.648h-2.08V13zm1.16-3.352V8.376h.808c.4 0 .672.296.672.64 0 .352-.272.632-.672.632h-.808zm0 2.288v-1.304h1.16c.432 0 .712.288.712.656 0 .368-.28.648-.712.648h-1.16z" fill="#fff"></path><g filter="url(#google-play_svg__filter0_ii_1961_71633)"><path d="M12.463 7.538c-.291.308-.463.786-.463 1.405V31.06c0 .62.172 1.097.463 1.405l.074.072 12.389-12.389v-.292L12.537 7.465l-.074.073z" fill="url(#google-play_svg__paint0_linear_1961_71633)"></path><path d="M29.055 24.278l-4.13-4.13v-.293l4.13-4.13.094.053 4.893 2.78c1.397.794 1.397 2.093 0 2.888l-4.893 2.78-.094.052z" fill="url(#google-play_svg__paint1_linear_1961_71633)"></path><g filter="url(#google-play_svg__filter1_i_1961_71633)"><path d="M29.149 24.225l-4.224-4.224-12.462 12.463c.46.488 1.22.548 2.078.062l14.608-8.301z" fill="url(#google-play_svg__paint2_linear_1961_71633)"></path></g><path d="M29.149 15.777l-14.608-8.3c-.857-.487-1.618-.426-2.078.062l12.463 12.463 4.223-4.225z" fill="url(#google-play_svg__paint3_linear_1961_71633)"></path></g><defs><linearGradient id="google-play_svg__paint0_linear_1961_71633" x1="23.828" y1="8.709" x2="7.046" y2="25.491" gradientUnits="userSpaceOnUse"><stop stop-color="#00A0FF"></stop><stop offset="0.007" stop-color="#00A1FF"></stop><stop offset="0.26" stop-color="#00BEFF"></stop><stop offset="0.512" stop-color="#00D2FF"></stop><stop offset="0.76" stop-color="#00DFFF"></stop><stop offset="1" stop-color="#00E3FF"></stop></linearGradient><linearGradient id="google-play_svg__paint1_linear_1961_71633" x1="35.86" y1="20.001" x2="11.664" y2="20.001" gradientUnits="userSpaceOnUse"><stop stop-color="#FFE000"></stop><stop offset="0.409" stop-color="#FFBD00"></stop><stop offset="0.775" stop-color="orange"></stop><stop offset="1" stop-color="#FF9C00"></stop></linearGradient><linearGradient id="google-play_svg__paint2_linear_1961_71633" x1="26.855" y1="22.295" x2="4.096" y2="45.053" gradientUnits="userSpaceOnUse"><stop stop-color="#FF3A44"></stop><stop offset="1" stop-color="#C31162"></stop></linearGradient><linearGradient id="google-play_svg__paint3_linear_1961_71633" x1="9.324" y1="0.177" x2="19.487" y2="10.339" gradientUnits="userSpaceOnUse"><stop stop-color="#32A071"></stop><stop offset="0.069" stop-color="#2DA771"></stop><stop offset="0.476" stop-color="#15CF74"></stop><stop offset="0.801" stop-color="#06E775"></stop><stop offset="1" stop-color="#00F076"></stop></linearGradient><filter id="google-play_svg__filter0_ii_1961_71633" x="12" y="7.141" width="23.089" height="25.721" filterUnits="userSpaceOnUse" color-interpolation-filters="sRGB"><feFlood flood-opacity="0" result="BackgroundImageFix"></feFlood><feBlend in="SourceGraphic" in2="BackgroundImageFix" result="shape"></feBlend><feColorMatrix in="SourceAlpha" values="0 0 0 0 0 0 0 0 0 0 0 0 0 0 0 0 0 0 127 0" result="hardAlpha"></feColorMatrix><feOffset dy="-0.14"></feOffset><feComposite in2="hardAlpha" operator="arithmetic" k2="-1" k3="1"></feComposite><feColorMatrix values="0 0 0 0 0 0 0 0 0 0 0 0 0 0 0 0 0 0 0.12 0"></feColorMatrix><feBlend in2="shape" result="effect1_innerShadow_1961_71633"></feBlend><feColorMatrix in="SourceAlpha" values="0 0 0 0 0 0 0 0 0 0 0 0 0 0 0 0 0 0 127 0" result="hardAlpha"></feColorMatrix><feOffset dy="0.14"></feOffset><feComposite in2="hardAlpha" operator="arithmetic" k2="-1" k3="1"></feComposite><feColorMatrix values="0 0 0 0 1 0 0 0 0 1 0 0 0 0 1 0 0 0 0.25 0"></feColorMatrix><feBlend in2="effect1_innerShadow_1961_71633" result="effect2_innerShadow_1961_71633"></feBlend></filter><filter id="google-play_svg__filter1_i_1961_71633" x="12.463" y="20.001" width="16.686" height="12.861" filterUnits="userSpaceOnUse" color-interpolation-filters="sRGB"><feFlood flood-opacity="0" result="BackgroundImageFix"></feFlood><feBlend in="SourceGraphic" in2="BackgroundImageFix" result="shape"></feBlend><feColorMatrix in="SourceAlpha" values="0 0 0 0 0 0 0 0 0 0 0 0 0 0 0 0 0 0 127 0" result="hardAlpha"></feColorMatrix><feOffset dy="-0.14"></feOffset><feComposite in2="hardAlpha" operator="arithmetic" k2="-1" k3="1"></feComposite><feColorMatrix values="0 0 0 0 0 0 0 0 0 0 0 0 0 0 0 0 0 0 0.08 0"></feColorMatrix><feBlend in2="shape" result="effect1_innerShadow_1961_71633"></feBlend></filter></defs></svg>