<?xml version="1.0" standalone="no"?>
<!DOCTYPE svg PUBLIC "-//W3C//DTD SVG 20010904//EN"
 "http://www.w3.org/TR/2001/REC-SVG-20010904/DTD/svg10.dtd">
<svg version="1.0" xmlns="http://www.w3.org/2000/svg"
 width="700.000000pt" height="700.000000pt" viewBox="0 0 700.000000 700.000000"
 preserveAspectRatio="xMidYMid meet">
<metadata>
Created by potrace 1.14, written by Peter Selinger 2001-2017
</metadata>
<g transform="translate(0.000000,700.000000) scale(0.100000,-0.100000)"
fill="#000000" stroke="none">
<path d="M3357 6944 c-1 -1 -49 -5 -107 -9 -58 -4 -116 -8 -130 -10 -14 -2
-50 -6 -80 -10 -58 -7 -70 -9 -135 -20 -22 -3 -53 -8 -69 -11 -16 -3 -32 -6
-35 -8 -3 -2 -24 -7 -46 -10 -22 -4 -48 -9 -57 -12 -9 -3 -25 -6 -35 -8 -220
-44 -697 -234 -884 -352 -21 -13 -41 -24 -44 -24 -4 0 -40 -22 -82 -50 -42
-27 -77 -50 -79 -50 -5 0 -177 -123 -219 -157 -31 -24 -35 -28 -121 -98 -114
-94 -344 -324 -429 -431 -16 -20 -54 -67 -83 -103 -82 -103 -223 -317 -294
-446 -88 -162 -220 -455 -233 -518 -2 -9 -7 -22 -11 -28 -6 -10 -54 -168 -75
-249 -5 -19 -11 -42 -14 -50 -4 -14 -38 -182 -49 -245 -3 -16 -8 -50 -11 -75
-3 -25 -8 -56 -10 -70 -13 -70 -19 -218 -19 -430 0 -323 9 -411 81 -770 27
-131 118 -410 190 -579 96 -227 247 -497 361 -648 31 -42 62 -83 67 -92 6 -9
12 -18 15 -21 3 -3 25 -30 50 -60 76 -93 91 -109 240 -260 197 -200 336 -317
518 -439 347 -232 744 -409 1122 -501 121 -29 160 -37 275 -55 81 -12 111 -17
140 -19 17 -2 62 -7 100 -12 140 -17 613 -10 755 11 14 2 45 6 70 9 25 3 54 8
65 10 11 2 42 7 69 10 27 4 52 9 55 11 3 1 24 6 46 9 22 4 47 8 55 11 8 2 26
6 40 9 132 22 517 155 633 217 20 11 37 17 37 13 0 -3 6 -2 13 4 10 8 92 53
227 124 43 23 49 26 185 115 158 104 209 141 295 213 10 8 35 29 57 46 90 74
221 201 308 299 39 43 79 89 90 101 40 44 59 69 116 148 32 45 62 86 66 91 5
6 24 35 43 65 19 30 37 57 40 60 9 9 84 124 117 180 148 251 304 652 367 945
4 17 11 50 17 75 5 25 12 61 15 80 3 19 7 42 9 50 2 8 7 42 11 75 3 33 8 62 9
65 7 12 18 233 19 370 0 134 -8 313 -18 385 -5 32 -17 135 -22 175 -1 14 -3
25 -4 25 -1 0 -4 16 -7 35 -2 19 -14 75 -25 125 -10 49 -21 99 -23 110 -7 46
-91 323 -115 380 -4 11 -22 58 -40 105 -34 89 -160 353 -206 430 -15 25 -32
54 -38 65 -18 32 -128 200 -135 205 -4 3 -18 21 -31 40 -13 19 -27 37 -30 40
-3 3 -21 25 -40 50 -19 25 -39 50 -45 56 -5 7 -30 35 -55 64 -155 180 -290
311 -469 457 -101 82 -354 251 -495 330 -151 85 -456 223 -525 238 -9 2 -47
15 -86 28 -38 13 -72 24 -75 24 -3 0 -32 8 -65 18 -71 20 -301 70 -365 79 -25
3 -56 8 -69 11 -14 2 -50 7 -80 10 -31 3 -69 7 -86 10 -66 9 -481 25 -488 19z
m325 -1248 c54 -4 108 -9 120 -11 13 -3 43 -8 68 -11 88 -11 236 -46 344 -81
102 -33 447 -196 454 -214 2 -5 8 -9 13 -9 31 0 320 -221 413 -315 69 -71 118
-133 112 -144 -3 -4 -596 -8 -1318 -9 -722 0 -1333 -3 -1358 -6 -25 -3 -56 -8
-70 -11 -14 -3 -34 -7 -45 -9 -50 -10 -195 -69 -241 -99 -114 -71 -243 -183
-244 -211 0 -5 -18 -28 -40 -52 -36 -39 -90 -137 -90 -163 0 -5 -3 -11 -7 -13
-17 -7 -56 -145 -57 -198 -1 -30 -5 -58 -11 -62 -11 -8 -11 -162 -1 -218 69
-368 323 -654 661 -743 168 -45 276 -52 720 -48 738 6 1141 5 1210 -1 39 -4
73 -8 76 -8 11 0 46 -35 57 -57 7 -12 12 -36 12 -53 0 -38 -28 -102 -41 -94
-5 3 -9 1 -9 -4 0 -5 -19 -15 -42 -22 -34 -10 -208 -12 -798 -11 -415 1 -761
2 -767 1 -31 -1 -58 -1 -231 0 l-184 1 -41 -27 c-23 -15 -183 -169 -355 -342
l-313 -315 -22 34 c-45 72 -58 95 -63 112 -4 9 -10 17 -15 17 -5 0 -9 4 -9 9
0 11 -67 129 -88 153 -7 9 -15 22 -16 30 -2 7 -15 40 -30 73 -15 32 -43 104
-61 160 -29 85 -39 118 -61 200 -19 69 -47 222 -48 262 0 24 -3 43 -6 43 -8 0
-12 76 -13 240 -1 126 3 190 18 300 6 50 46 232 59 273 32 100 58 188 62 213
5 28 117 257 157 322 13 20 34 58 46 85 13 26 27 47 31 47 5 0 40 44 79 98 38
53 81 111 96 127 72 82 110 128 113 136 2 5 10 9 18 9 8 0 14 4 14 8 0 4 24
26 53 47 28 22 58 45 65 52 57 54 373 263 398 263 3 0 18 9 33 19 28 20 314
131 337 131 8 0 14 5 14 10 0 6 3 9 8 8 4 -1 30 5 57 14 28 9 75 20 105 23 86
11 96 13 120 20 27 9 54 12 155 21 44 4 81 7 82 8 5 4 226 -2 315 -8z m1691
-991 c26 -41 48 -78 48 -82 0 -5 6 -15 14 -23 42 -47 181 -353 225 -495 21
-69 25 -84 35 -126 2 -11 7 -28 9 -37 3 -10 8 -31 10 -47 3 -17 7 -41 9 -55 6
-29 18 -118 23 -175 9 -105 3 -374 -11 -445 -2 -14 -7 -50 -10 -80 -4 -30 -11
-75 -16 -100 -6 -25 -13 -56 -15 -70 -34 -185 -155 -473 -289 -690 -131 -211
-378 -479 -545 -590 -12 -8 -33 -23 -45 -32 -13 -10 -28 -18 -34 -18 -6 0 -11
-4 -11 -8 0 -4 -30 -25 -67 -47 -38 -21 -70 -41 -73 -45 -3 -3 -41 -23 -85
-45 -44 -22 -83 -44 -86 -48 -3 -5 -8 -8 -10 -6 -2 1 -20 -5 -39 -13 -127 -57
-297 -116 -410 -142 -186 -43 -259 -51 -475 -51 -192 0 -255 5 -400 32 -44 8
-89 16 -100 18 -121 20 -381 110 -550 192 -52 25 -57 28 -142 81 -30 17 -57
32 -62 32 -4 0 -16 9 -26 20 -10 11 -24 20 -32 20 -7 0 -16 7 -19 15 -4 8 -13
15 -20 15 -8 0 -17 7 -20 15 -4 8 -11 15 -16 15 -10 0 -88 66 -202 170 -85 78
-146 143 -146 157 0 11 221 13 1248 14 1259 0 1293 1 1392 13 335 42 564 178
708 422 60 101 109 223 127 319 6 31 18 153 17 170 -8 130 -15 174 -47 268
-34 103 -48 137 -57 137 -4 0 -8 6 -8 13 0 36 -142 210 -235 287 -112 93 -258
160 -395 181 -41 6 -85 15 -97 20 -13 5 -23 5 -23 0 0 -5 -17 -5 -37 -1 -21 3
-418 5 -883 2 l-845 -3 -45 23 c-49 25 -73 63 -72 111 1 47 20 82 55 102 31
19 67 19 1012 20 539 1 987 2 995 3 8 1 31 17 51 35 107 95 274 253 453 429
111 109 206 198 211 198 6 0 31 -34 58 -75z"/>
</g>
</svg>
